<svg id="f9fdbb83-ea93-4918-9a85-af44ddf1f6d2" style="fill: currentColor" data-name="Layer 1" xmlns="http://www.w3.org/2000/svg" viewBox="0 0 512 403.46"><path id="bbdfdfd3-64a8-4db6-b080-25ab33ca29ac" data-name="Fill-1" d="M469,366.56a48.22,48.22,0,0,1-48.16,48.16H91.17A48.22,48.22,0,0,1,43,366.56V145.44a48.28,48.28,0,0,1,.29-5.27L241,310.19a21.52,21.52,0,0,0,28.45-.35L466.87,131.31A47.85,47.85,0,0,1,469,145.44ZM420.83,97.28a48.09,48.09,0,0,1,16.38,2.87L254.62,265.22,67,103.82a47.82,47.82,0,0,1,24.18-6.54Zm0-43H91.17A91.27,91.27,0,0,0,0,145.44V366.56a91.27,91.27,0,0,0,91.17,91.17H420.83A91.27,91.27,0,0,0,512,366.56V145.44a91.27,91.27,0,0,0-91.17-91.17Z" transform="translate(0 -54.27)" fill-rule="evenodd"/></svg>