<svg data-name="Layer 1" xmlns="http://www.w3.org/2000/svg" viewBox="0 0 512 512"><title>Phone</title><path fill="none" d="M0 0h512v512H0z"/><path d="M365.73 227H146.27l-29.79 50.81a304.4 304.4 0 00-41.76 153.76v35.56h362.56v-35.56a304.4 304.4 0 00-41.76-153.81zM256 428.92A81.88 81.88 0 11337.88 347 82 82 0 01256 428.92z" fill="none"/><path d="M256 305.16A41.88 41.88 0 10297.88 347 41.92 41.92 0 00256 305.16zM42.39 140.2a1.63 1.63 0 001.61 1.62h33.73a27.92 27.92 0 0027.89-27.9V69.48a466 466 0 00-63.23 26.61zM406.38 69.59v47.59A24.67 24.67 0 00431 141.82h37a1.63 1.63 0 001.62-1.62V96.25a466.28 466.28 0 00-63.24-26.66z" fill="none"/><path d="M394.44 196.84a20 20 0 00-17.25-9.84h-40.95v-16.4a20 20 0 00-40 0V187h-80.48v-16.4a20 20 0 00-40 0V187h-40.95a20 20 0 00-17.25 9.89L82 257.53a344.36 344.36 0 00-47.26 174v55.56a20 20 0 0020 20h402.54a20 20 0 0020-20v-55.52a344.36 344.36 0 00-47.26-174zm42.84 270.29H74.72v-35.56a304.4 304.4 0 0141.76-153.81L146.27 227h219.46l29.79 50.81a304.4 304.4 0 0141.76 153.81z"/><path d="M256 265.16A81.88 81.88 0 10337.88 347 82 82 0 00256 265.16zm0 123.76A41.88 41.88 0 11297.88 347 41.92 41.92 0 01256 388.92zM507.85 76.73a19.92 19.92 0 00-9.08-10.34 510.4 510.4 0 00-485.86 0A20 20 0 002.52 82.66a20.69 20.69 0 00-.13 2.23v55.31A41.67 41.67 0 0044 181.82h33.73a68 68 0 0067.89-67.9V58a470 470 0 01220.76.07v59.13A64.71 64.71 0 00431 181.82h37a41.67 41.67 0 0041.62-41.62V84.89a19.85 19.85 0 00-1.77-8.16zm-402.23 37.19a27.92 27.92 0 01-27.89 27.9H44a1.63 1.63 0 01-1.62-1.62V96.09a466 466 0 0163.23-26.61zM468 141.82h-37a24.67 24.67 0 01-24.64-24.64V69.59a466.28 466.28 0 0163.23 26.66v43.95a1.63 1.63 0 01-1.59 1.62z"/><path fill="none" d="M0 0h512v512H0z"/></svg>