<svg data-name="Layer 1" xmlns="http://www.w3.org/2000/svg" viewBox="0 0 512 512"><title>Globe</title><path d="M255.52 40.72c-18.66 0-39.16 21.33-54.84 57.06-16.38 37.33-26.21 85.95-28.19 138.57h166.07c-2-52.62-11.81-101.24-28.19-138.58-15.68-35.72-36.18-57.05-54.85-57.05zM172.49 276.07c1.88 49.47 10.78 95.82 25.52 132.23a201.41 201.41 0 0013.08 26.83c13.92 23.59 29.7 36.57 44.43 36.57 18.93 0 34.83-21 42.62-33.57A195.5 195.5 0 00313 408.3c14.74-36.41 23.63-82.76 25.52-132.23zM132.74 236.35c2-58.12 13.08-112.39 31.57-154.54A228.63 228.63 0 01178.16 55 216 216 0 0040.94 236.35zM346.74 81.81c18.49 42.15 29.52 96.42 31.57 154.54h91.8A216 216 0 00332.89 55a228.63 228.63 0 0113.85 26.81zM176.88 455.33a242.63 242.63 0 01-15.69-32.13c-16.57-40.92-26.5-92.55-28.44-147.13H41a214.63 214.63 0 0056.11 126.22 216.35 216.35 0 0081.05 55.14c-.42-.7-.85-1.38-1.28-2.1zM378.3 276.07c-1.94 54.57-11.87 106.21-28.45 147.14a237.92 237.92 0 01-17 34.2A215.81 215.81 0 00470.1 276.07z" fill="none"/><path d="M436 75.75A255.21 255.21 0 0067.91 429.22a257.11 257.11 0 0035.53 31.95 255.23 255.23 0 00299.08 3.68 255.35 255.35 0 00108.22-208.64A253.54 253.54 0 00436 75.75zm34.12 160.6h-91.8c-2.06-58.12-13.09-112.35-31.58-154.54A228.63 228.63 0 00332.89 55a216 216 0 01137.22 181.35zm-172 201.78c-7.79 12.54-23.69 33.57-42.62 33.57-14.73 0-30.51-13-44.43-36.57A201.41 201.41 0 01198 408.3c-14.74-36.41-23.64-82.76-25.52-132.23h166.08c-1.89 49.47-10.78 95.82-25.52 132.23a195.5 195.5 0 01-14.9 29.83zM172.49 236.35c2-52.62 11.81-101.24 28.19-138.57 15.68-35.73 36.18-57.06 54.84-57.06s39.17 21.33 54.85 57.05c16.38 37.34 26.21 86 28.19 138.58zm-69.34-132.51a214.91 214.91 0 0175-48.87 228.63 228.63 0 00-13.85 26.84c-18.49 42.15-29.52 96.42-31.57 154.54H40.94a213.89 213.89 0 0162.21-132.51zm-6 298.45A214.63 214.63 0 0141 276.07h91.8c1.94 54.58 11.87 106.21 28.44 147.13a242.63 242.63 0 0015.69 32.13c.43.72.86 1.4 1.28 2.1a216.35 216.35 0 01-81-55.14zm316.83 0a216.51 216.51 0 01-81 55.12 237.92 237.92 0 0017-34.2c16.58-40.93 26.51-92.57 28.45-147.14h91.8a214.63 214.63 0 01-56.29 126.22z"/><path fill="none" d="M0 0h512v512H0z"/></svg>